<svg width="30" height="30" viewBox="0 0 30 30" fill="none" xmlns="http://www.w3.org/2000/svg">
<path d="M23.75 16.25V22.5C23.75 23.1875 23.1875 23.75 22.5 23.75H7.5C6.8125 23.75 6.25 23.1875 6.25 22.5V16.25C6.25 15.5625 5.6875 15 5 15C4.3125 15 3.75 15.5625 3.75 16.25V23.75C3.75 25.125 4.875 26.25 6.25 26.25H23.75C25.125 26.25 26.25 25.125 26.25 23.75V16.25C26.25 15.5625 25.6875 15 25 15C24.3125 15 23.75 15.5625 23.75 16.25Z" fill="currentColor"/>
<path d="M18.5999 10.3656L16.2499 8.01562V18.8531C16.2499 19.5406 15.6874 20.1031 14.9999 20.1031C14.3124 20.1031 13.7499 19.5406 13.7499 18.8531V8.01562L11.3874 10.3656C10.8999 10.8531 10.1124 10.8531 9.6249 10.3656C9.1374 9.87812 9.1374 9.09062 9.6249 8.60312L14.1124 4.11562C14.5999 3.62812 15.3874 3.62812 15.8749 4.11562L20.3624 8.60312C20.8499 9.09062 20.8499 9.87812 20.3624 10.3656C19.8749 10.8531 19.0874 10.8531 18.5999 10.3656Z" fill="currentColor"/>
</svg>
